<svg width="446" height="599" viewBox="0 0 446 599" fill="none" xmlns="http://www.w3.org/2000/svg">
<mask id="mask0_1_103" style="mask-type:luminance" maskUnits="userSpaceOnUse" x="0" y="0" width="446" height="599">
<path d="M417.134 0.788086H28.8329C12.9089 0.788086 0 13.697 0 29.621V569.765C0 585.689 12.9089 598.598 28.8329 598.598H417.134C433.058 598.598 445.966 585.689 445.966 569.765V29.621C445.966 13.697 433.058 0.788086 417.134 0.788086Z" fill="white"/>
</mask>
<g mask="url(#mask0_1_103)">
<path d="M417.131 0.788574H28.8306C12.9067 0.788574 -0.0022583 13.6975 -0.0022583 29.6215V569.765C-0.0022583 585.689 12.9067 598.598 28.8306 598.598H417.131C433.055 598.598 445.964 585.689 445.964 569.765V29.6215C445.964 13.6975 433.055 0.788574 417.131 0.788574Z" fill="#C8EDAE"/>
<path opacity="0.9" fill-rule="evenodd" clip-rule="evenodd" d="M296.224 227.662C288.598 227.707 281.732 222.958 278.736 215.946C244.187 135.052 135.16 104.079 35.2183 146.765C-64.723 189.45 -117.733 289.631 -83.1835 370.523C-59.0113 427.119 1.61614 459.279 70.0823 458.874C77.7079 458.829 84.575 463.579 87.5703 470.592C122.12 551.484 231.147 582.458 331.089 539.772C431.029 497.086 484.04 396.905 449.491 316.013C425.318 259.419 364.691 227.258 296.224 227.662Z" fill="url(#paint0_linear_1_103)"/>
</g>
<defs>
<linearGradient id="paint0_linear_1_103" x1="89.3504" y1="123.645" x2="276.956" y2="562.892" gradientUnits="userSpaceOnUse">
<stop stop-color="#ABE980"/>
<stop offset="1" stop-color="#ABE980" stop-opacity="0"/>
</linearGradient>
</defs>
</svg>
