<svg width="451" height="603" viewBox="0 0 451 603" fill="none" xmlns="http://www.w3.org/2000/svg">
<mask id="mask0_1_125" style="mask-type:luminance" maskUnits="userSpaceOnUse" x="0" y="0" width="451" height="603">
<path d="M421.176 0H30.0363C13.9959 0 0.992676 13.0033 0.992676 29.0436V573.136C0.992676 589.177 13.9959 602.18 30.0363 602.18H421.176C437.216 602.18 450.219 589.177 450.219 573.136V29.0436C450.219 13.0033 437.216 0 421.176 0Z" fill="white"/>
</mask>
<g mask="url(#mask0_1_125)">
<path d="M421.176 0H30.0363C13.9959 0 0.992676 13.0033 0.992676 29.0436V573.136C0.992676 589.177 13.9959 602.18 30.0363 602.18H421.176C437.216 602.18 450.219 589.177 450.219 573.136V29.0436C450.219 13.0033 437.216 0 421.176 0Z" fill="#9E72FF"/>
<path d="M421.176 0H30.0363C13.9959 0 0.992676 13.0033 0.992676 29.0436V573.136C0.992676 589.177 13.9959 602.18 30.0363 602.18H421.176C437.216 602.18 450.219 589.177 450.219 573.136V29.0436C450.219 13.0033 437.216 0 421.176 0Z" fill="#C8B2F9"/>
<path fill-rule="evenodd" clip-rule="evenodd" d="M134.879 531.308C140.621 578.818 184.071 617.367 231.927 617.409L496.168 617.643C544.024 617.686 578.162 579.207 572.42 531.697L540.713 269.364C534.97 221.855 491.52 183.307 443.665 183.264L392.508 183.219C357.156 183.187 327.389 156.777 323.147 121.683L317.008 70.8863C311.265 23.3766 267.815 -15.172 219.96 -15.2143L-44.2812 -15.4487C-92.1366 -15.4911 -126.276 22.9888 -120.533 70.4983L-88.8253 332.831C-83.0827 380.34 -39.6332 418.888 8.2222 418.931L59.3795 418.976C94.7302 419.008 124.497 445.417 128.739 480.513L134.879 531.308Z" fill="url(#paint0_radial_1_125)"/>
</g>
<defs>
<radialGradient id="paint0_radial_1_125" cx="0" cy="0" r="1" gradientUnits="userSpaceOnUse" gradientTransform="translate(225.944 301.097) rotate(-48.4205) scale(256.438 439.086)">
<stop stop-color="#8172FF"/>
<stop offset="1" stop-color="#9E72FF" stop-opacity="0"/>
</radialGradient>
</defs>
</svg>
