<svg width="450" height="603" viewBox="0 0 450 603" fill="none" xmlns="http://www.w3.org/2000/svg">
<mask id="mask0_1_148" style="mask-type:luminance" maskUnits="userSpaceOnUse" x="0" y="0" width="450" height="603">
<path d="M420.956 0H29.8171C13.7767 0 0.773438 13.0033 0.773438 29.0436V573.136C0.773438 589.177 13.7767 602.18 29.8171 602.18H420.956C436.997 602.18 450 589.177 450 573.136V29.0436C450 13.0033 436.997 0 420.956 0Z" fill="white"/>
</mask>
<g mask="url(#mask0_1_148)">
<path d="M420.956 0H29.8171C13.7767 0 0.773438 13.0033 0.773438 29.0436V573.136C0.773438 589.177 13.7767 602.18 29.8171 602.18H420.956C436.997 602.18 450 589.177 450 573.136V29.0436C450 13.0033 436.997 0 420.956 0Z" fill="#231F26"/>
<path fill-rule="evenodd" clip-rule="evenodd" d="M883.029 672.898C925.309 653.416 918.387 587.864 870.515 554.379L475.752 278.259C427.477 244.493 373.856 268.619 379.449 321.59L380.927 335.581C387.733 400.042 346.084 459.689 283.226 475.507L79.7111 526.718C22.2788 541.17 8.54033 616.5 57.1736 650.296L478.378 942.993C527.011 976.789 592.822 937.644 586.34 878.777C582.011 839.468 603.313 801.796 639.23 785.246L883.029 672.898Z" fill="url(#paint0_radial_1_148)"/>
</g>
<defs>
<radialGradient id="paint0_radial_1_148" cx="0" cy="0" r="1" gradientUnits="userSpaceOnUse" gradientTransform="translate(470.571 606.113) rotate(124.796) scale(272.189 383.402)">
<stop stop-color="#D9D9D9"/>
<stop offset="1" stop-color="#D9D9D9" stop-opacity="0"/>
</radialGradient>
</defs>
</svg>
