<svg width="30" height="30" viewBox="0 0 30 30" fill="none" xmlns="http://www.w3.org/2000/svg">
<path d="M29.9996 14.9986C30.0003 14.7358 29.9489 14.4756 29.8483 14.2329C29.7477 13.9901 29.5999 13.7698 29.4136 13.5846L23.6206 7.79157L26.4886 4.92357C26.9138 5.03756 27.3648 5.00804 27.7716 4.83958C28.1784 4.67111 28.5182 4.37313 28.7384 3.99184C28.9585 3.61055 29.0467 3.16728 28.9893 2.73076C28.9318 2.29424 28.7319 1.88888 28.4206 1.57755C28.1093 1.26623 27.7039 1.06633 27.2674 1.00887C26.8309 0.951412 26.3876 1.0396 26.0063 1.25976C25.625 1.47992 25.327 1.81974 25.1586 2.22652C24.9901 2.6333 24.9606 3.0843 25.0746 3.50957L22.2066 6.37857L16.4136 0.585573C16.0385 0.210631 15.5299 0 14.9996 0C14.4692 0 13.9606 0.210631 13.5856 0.585573L7.79257 6.37757L4.92457 3.50857C5.03856 3.0833 5.00904 2.6323 4.84058 2.22552C4.67211 1.81874 4.37413 1.47892 3.99284 1.25876C3.61155 1.0386 3.16828 0.950412 2.73176 1.00787C2.29524 1.06533 1.88988 1.26523 1.57855 1.57655C1.26723 1.88788 1.06733 2.29324 1.00987 2.72976C0.952412 3.16628 1.0406 3.60955 1.26076 3.99084C1.48092 4.37213 1.82074 4.67011 2.22752 4.83858C2.6343 5.00704 3.0853 5.03656 3.51057 4.92257L6.37857 7.79057L0.585573 13.5836C0.210631 13.9586 0 14.4672 0 14.9976C0 15.5279 0.210631 16.0365 0.585573 16.4116L6.37857 22.2046L3.51057 25.0726C3.0853 24.9586 2.6343 24.9881 2.22752 25.1566C1.82074 25.325 1.48092 25.623 1.26076 26.0043C1.0406 26.3856 0.952412 26.8289 1.00987 27.2654C1.06733 27.7019 1.26723 28.1073 1.57855 28.4186C1.88988 28.7299 2.29524 28.9298 2.73176 28.9873C3.16828 29.0447 3.61155 28.9565 3.99284 28.7364C4.37413 28.5162 4.67211 28.1764 4.84058 27.7696C5.00904 27.3628 5.03856 26.9118 4.92457 26.4866L7.79257 23.6186L13.5856 29.4116C13.9606 29.7865 14.4692 29.9971 14.9996 29.9971C15.5299 29.9971 16.0385 29.7865 16.4136 29.4116L22.2066 23.6186L25.0746 26.4866C24.9606 26.9118 24.9901 27.3628 25.1586 27.7696C25.327 28.1764 25.625 28.5162 26.0063 28.7364C26.3876 28.9565 26.8309 29.0447 27.2674 28.9873C27.7039 28.9298 28.1093 28.7299 28.4206 28.4186C28.7319 28.1073 28.9318 27.7019 28.9893 27.2654C29.0467 26.8289 28.9585 26.3856 28.7384 26.0043C28.5182 25.623 28.1784 25.325 27.7716 25.1566C27.3648 24.9881 26.9138 24.9586 26.4886 25.0726L23.6206 22.2046L29.4136 16.4116C29.5998 16.2264 29.7474 16.0063 29.848 15.7637C29.9486 15.5212 30.0001 15.2611 29.9996 14.9986ZM22.2066 20.7916L19.4136 17.9986L17.9996 19.4126L20.7926 22.2056L14.9996 27.9986L9.20657 22.2056L11.9996 19.4126L10.5856 17.9986L7.79257 20.7916L1.99957 14.9986L7.79257 9.20557L10.5846 11.9986L11.9996 10.5846L9.20657 7.79157L14.9996 1.99857L20.7926 7.79157L17.9996 10.5836L19.4136 11.9986L22.2066 9.20557L27.9996 14.9986L22.2066 20.7916Z" fill="white"/>
</svg>
