<svg width="29" height="29" viewBox="0 0 29 29" fill="none" xmlns="http://www.w3.org/2000/svg">
<path d="M4.83333 7.25C4.83333 6.60906 5.08795 5.99437 5.54116 5.54116C5.99437 5.08795 6.60906 4.83333 7.25 4.83333H10.875C11.5159 4.83333 12.1306 5.08795 12.5838 5.54116C13.0371 5.99437 13.2917 6.60906 13.2917 7.25V10.875C13.2917 11.5159 13.0371 12.1306 12.5838 12.5838C12.1306 13.0371 11.5159 13.2917 10.875 13.2917H7.25C6.60906 13.2917 5.99437 13.0371 5.54116 12.5838C5.08795 12.1306 4.83333 11.5159 4.83333 10.875V7.25ZM10.875 7.25H7.25V10.875H10.875V7.25ZM7.25 15.7083C6.60906 15.7083 5.99437 15.9629 5.54116 16.4162C5.08795 16.8694 4.83333 17.4841 4.83333 18.125V21.75C4.83333 22.3909 5.08795 23.0056 5.54116 23.4588C5.99437 23.9121 6.60906 24.1667 7.25 24.1667H10.875C11.5159 24.1667 12.1306 23.9121 12.5838 23.4588C13.0371 23.0056 13.2917 22.3909 13.2917 21.75V18.125C13.2917 17.4841 13.0371 16.8694 12.5838 16.4162C12.1306 15.9629 11.5159 15.7083 10.875 15.7083H7.25ZM7.25 18.125H10.875V21.75H7.25V18.125ZM15.7083 7.25C15.7083 6.60906 15.9629 5.99437 16.4162 5.54116C16.8694 5.08795 17.4841 4.83333 18.125 4.83333H21.75C22.3909 4.83333 23.0056 5.08795 23.4588 5.54116C23.9121 5.99437 24.1667 6.60906 24.1667 7.25V10.875C24.1667 11.5159 23.9121 12.1306 23.4588 12.5838C23.0056 13.0371 22.3909 13.2917 21.75 13.2917H18.125C17.4841 13.2917 16.8694 13.0371 16.4162 12.5838C15.9629 12.1306 15.7083 11.5159 15.7083 10.875V7.25ZM21.75 7.25H18.125V10.875H21.75V7.25ZM18.125 15.7083C17.4841 15.7083 16.8694 15.9629 16.4162 16.4162C15.9629 16.8694 15.7083 17.4841 15.7083 18.125V21.75C15.7083 22.3909 15.9629 23.0056 16.4162 23.4588C16.8694 23.9121 17.4841 24.1667 18.125 24.1667H21.75C22.3909 24.1667 23.0056 23.9121 23.4588 23.4588C23.9121 23.0056 24.1667 22.3909 24.1667 21.75V18.125C24.1667 17.4841 23.9121 16.8694 23.4588 16.4162C23.0056 15.9629 22.3909 15.7083 21.75 15.7083H18.125ZM18.125 18.125H21.75V21.75H18.125V18.125ZM0 6.04167C0 4.43932 0.636531 2.9026 1.76956 1.76956C2.9026 0.636531 4.43932 0 6.04167 0H22.9583C24.5607 0 26.0974 0.636531 27.2304 1.76956C28.3635 2.9026 29 4.43932 29 6.04167V22.9583C29 24.5607 28.3635 26.0974 27.2304 27.2304C26.0974 28.3635 24.5607 29 22.9583 29H6.04167C4.43932 29 2.9026 28.3635 1.76956 27.2304C0.636531 26.0974 0 24.5607 0 22.9583V6.04167ZM6.04167 2.41667C5.08026 2.41667 4.15822 2.79859 3.4784 3.4784C2.79859 4.15822 2.41667 5.08026 2.41667 6.04167V22.9583C2.41667 23.9197 2.79859 24.8418 3.4784 25.5216C4.15822 26.2014 5.08026 26.5833 6.04167 26.5833H22.9583C23.9197 26.5833 24.8418 26.2014 25.5216 25.5216C26.2014 24.8418 26.5833 23.9197 26.5833 22.9583V6.04167C26.5833 5.08026 26.2014 4.15822 25.5216 3.4784C24.8418 2.79859 23.9197 2.41667 22.9583 2.41667H6.04167Z" fill="white"/>
</svg>
