<svg width="37" height="28" viewBox="0 0 37 28" fill="none" xmlns="http://www.w3.org/2000/svg">
<path d="M36.6258 7.61054L31.5221 12.9437C31.2827 13.1939 30.958 13.3345 30.6194 13.3345C30.2808 13.3345 29.9561 13.1939 29.7167 12.9437C29.4773 12.6935 29.3428 12.3542 29.3428 12.0004C29.3428 11.6466 29.4773 11.3073 29.7167 11.0571L32.6433 8.00053H28.0676C27.8028 8.00053 21.4727 8.12885 20.3945 14.8853C19.6146 19.7669 16.8634 22.0001 14.6912 23.0001C13.3081 23.6352 11.8174 23.9752 10.3068 24.0001H10.0453C9.73472 25.2569 8.99617 26.3523 7.96807 27.0808C6.93996 27.8093 5.69288 28.121 4.46058 27.9575C3.22828 27.7939 2.09537 27.1663 1.27421 26.1923C0.453043 25.2184 0 23.9649 0 22.6668C0 21.3687 0.453043 20.1152 1.27421 19.1412C2.09537 18.1673 3.22828 17.5397 4.46058 17.3761C5.69288 17.2126 6.93996 17.5243 7.96807 18.2528C8.99617 18.9813 9.73472 20.0767 10.0453 21.3335H10.2574C10.5158 21.3335 16.7598 21.4685 17.8794 14.447C18.629 9.74048 21.369 7.50054 23.5461 6.45557C24.9679 5.7743 26.5044 5.39313 28.0676 5.33393H32.6433L29.7167 2.27735C29.4773 2.02717 29.3428 1.68785 29.3428 1.33404C29.3428 0.98023 29.4773 0.640912 29.7167 0.390731C29.9561 0.14055 30.2808 6.97442e-09 30.6194 0C30.958 -6.97442e-09 31.2827 0.14055 31.5221 0.390731L36.6258 5.72392C36.7444 5.84775 36.8385 5.9948 36.9027 6.15665C36.967 6.31851 37 6.49201 37 6.66723C37 6.84244 36.967 7.01594 36.9027 7.1778C36.8385 7.33966 36.7444 7.48671 36.6258 7.61054Z" fill="white"/>
</svg>
