<svg width="32" height="26" viewBox="0 0 32 26" fill="none" xmlns="http://www.w3.org/2000/svg">
<path d="M9.0875 6.375L10.1562 6.375C11.4813 6.375 12.6484 7.175 13.3547 8.38594C13.7942 7.35194 14.3902 6.39174 15.1219 5.53906C13.85 4.12656 12.0937 3.25 10.1562 3.25L9.0875 3.25C8.76608 2.33883 8.17069 1.54938 7.38295 0.989908C6.59521 0.430434 5.6537 0.128323 4.6875 0.124999C2.10312 0.124999 -9.19305e-08 2.22812 -2.04897e-07 4.8125C-3.17864e-07 7.39687 2.10312 9.5 4.6875 9.5C5.6537 9.49667 6.59521 9.19456 7.38295 8.63509C8.17069 8.07562 8.76608 7.28617 9.0875 6.375ZM3.125 4.8125C3.143 4.41019 3.31548 4.03032 3.60653 3.75199C3.89759 3.47367 4.28479 3.31833 4.6875 3.31833C5.09021 3.31833 5.47741 3.47367 5.76847 3.75199C6.05952 4.03032 6.232 4.41019 6.25 4.8125C6.232 5.21481 6.05952 5.59468 5.76847 5.873C5.47741 6.15133 5.09021 6.30667 4.6875 6.30667C4.28479 6.30667 3.89759 6.15133 3.60653 5.873C3.31548 5.59468 3.143 5.21481 3.125 4.8125ZM22.1641 18.875L21.6156 18.875C20.0766 18.875 18.7219 18.0391 17.9281 16.7734C17.5035 17.8048 16.9239 18.7654 16.2094 19.6219C17.5812 21.0844 19.4937 22 21.6141 22L22.1625 22C22.4839 22.9112 23.0793 23.7006 23.8671 24.2601C24.6548 24.8196 25.5963 25.1217 26.5625 25.125C29.1469 25.125 31.25 23.0219 31.25 20.4375C31.25 17.8531 29.1469 15.75 26.5625 15.75C24.5281 15.75 22.8109 17.0609 22.1641 18.875ZM28.125 20.4375C28.1253 20.747 28.0338 21.0496 27.8621 21.307C27.6903 21.5645 27.4461 21.7652 27.1602 21.8838C26.8743 22.0023 26.5597 22.0334 26.2562 21.9731C25.9526 21.9128 25.6738 21.7639 25.455 21.545C25.2361 21.3262 25.0872 21.0474 25.0269 20.7438C24.9666 20.4403 24.9977 20.1257 25.1162 19.8398C25.2348 19.5539 25.4355 19.3097 25.693 19.1379C25.9504 18.9662 26.253 18.8747 26.5625 18.875C27.4234 18.875 28.125 19.575 28.125 20.4375ZM9.11875 21.8984C13.6703 21.2578 17.1875 17.35 17.1875 12.625C17.189 11.1825 17.689 9.78489 18.6027 8.66872C19.5164 7.55255 20.7878 6.7864 22.2016 6.5C22.5416 7.3812 23.1399 8.13912 23.9181 8.67445C24.6962 9.20977 25.618 9.49752 26.5625 9.5C29.1469 9.5 31.25 7.39687 31.25 4.8125C31.25 2.22812 29.1469 0.125 26.5625 0.125C24.4906 0.125 22.75 1.48437 22.1313 3.35156C17.5797 3.99219 14.0625 7.9 14.0625 12.625C14.061 14.0675 13.561 15.4651 12.6473 16.5813C11.7336 17.6975 10.4622 18.4636 9.04844 18.75C8.70841 17.8688 8.11011 17.1109 7.33194 16.5756C6.55376 16.0402 5.63202 15.7525 4.6875 15.75C2.10312 15.75 -7.74921e-07 17.8531 -8.87888e-07 20.4375C-1.00085e-06 23.0219 2.10312 25.125 4.6875 25.125C6.75937 25.125 8.5 23.7656 9.11875 21.8984ZM28.125 4.8125C28.1253 5.12198 28.0338 5.42459 27.8621 5.68203C27.6903 5.93948 27.4461 6.14019 27.1602 6.25877C26.8743 6.37734 26.5597 6.40845 26.2562 6.34815C25.9526 6.28785 25.6738 6.13885 25.455 5.92002C25.2361 5.70119 25.0872 5.42236 25.0269 5.11881C24.9666 4.81527 24.9977 4.50066 25.1162 4.2148C25.2348 3.92894 25.4355 3.68468 25.693 3.51294C25.9504 3.3412 26.253 3.24969 26.5625 3.25C27.4234 3.25 28.125 3.95 28.125 4.8125ZM3.125 20.4375C3.14299 20.0352 3.31548 19.6553 3.60653 19.377C3.89759 19.0987 4.28479 18.9433 4.6875 18.9433C5.09021 18.9433 5.47741 19.0987 5.76847 19.377C6.05952 19.6553 6.232 20.0352 6.25 20.4375C6.232 20.8398 6.05952 21.2197 5.76847 21.498C5.47741 21.7763 5.09021 21.9317 4.6875 21.9317C4.28479 21.9317 3.89759 21.7763 3.60653 21.498C3.31548 21.2197 3.14299 20.8398 3.125 20.4375Z" fill="white"/>
</svg>
