<svg width="29" height="27" viewBox="0 0 29 27" fill="none" xmlns="http://www.w3.org/2000/svg">
<path d="M20.6156 0H3.41176C2.50691 0 1.63911 0.355579 0.999283 0.988514C0.359453 1.62145 0 2.47989 0 3.375V18.5625C0 19.4576 0.359453 20.316 0.999283 20.949C1.63911 21.5819 2.50691 21.9375 3.41176 21.9375H8.52941V25.3125H5.97059C5.74437 25.3125 5.52743 25.4014 5.36747 25.5596C5.20751 25.7179 5.11765 25.9325 5.11765 26.1562C5.11765 26.38 5.20751 26.5946 5.36747 26.7529C5.52743 26.9111 5.74437 27 5.97059 27H21.3235C21.5497 27 21.7667 26.9111 21.9266 26.7529C22.0866 26.5946 22.1765 26.38 22.1765 26.1562C22.1765 25.9325 22.0866 25.7179 21.9266 25.5596C21.7667 25.4014 21.5497 25.3125 21.3235 25.3125H18.7647V21.9375H23.8824C24.7872 21.9375 25.655 21.5819 26.2948 20.949C26.9347 20.316 27.2941 19.4576 27.2941 18.5625V8.4375H25.5882V18.5625C25.5882 19.0101 25.4085 19.4393 25.0886 19.7557C24.7687 20.0722 24.3348 20.25 23.8824 20.25H3.41176C2.95934 20.25 2.52544 20.0722 2.20552 19.7557C1.88561 19.4393 1.70588 19.0101 1.70588 18.5625V3.375C1.70588 2.92745 1.88561 2.49822 2.20552 2.18176C2.52544 1.86529 2.95934 1.6875 3.41176 1.6875H20.4706V0.84375C20.4706 0.548437 20.5218 0.26325 20.6156 0ZM17.0588 25.3125H10.2353V21.9375H17.0588V25.3125ZM22.1765 0.84375C22.1765 0.619974 22.2663 0.405363 22.4263 0.247129C22.5862 0.088895 22.8032 0 23.0294 0H28.1471C28.3733 0 28.5902 0.088895 28.7502 0.247129C28.9101 0.405363 29 0.619974 29 0.84375V5.90625C29 6.13003 28.9101 6.34464 28.7502 6.50287C28.5902 6.66111 28.3733 6.75 28.1471 6.75H23.0294C22.8032 6.75 22.5862 6.66111 22.4263 6.50287C22.2663 6.34464 22.1765 6.13003 22.1765 5.90625V5.0625H20.8459C20.6669 5.06263 20.4926 5.11844 20.3475 5.22201C20.2023 5.32558 20.0938 5.47168 20.0373 5.63963L19.1093 8.39363C18.9397 8.89746 18.6141 9.33575 18.1788 9.64647C17.7435 9.95719 17.2204 10.1246 16.6835 10.125H15.3529V12.6562C15.3529 12.88 15.2631 13.0946 15.1031 13.2529C14.9432 13.4111 14.7262 13.5 14.5 13.5H9.38235C9.15614 13.5 8.93919 13.4111 8.77923 13.2529C8.61928 13.0946 8.52941 12.88 8.52941 12.6562V7.59375C8.52941 7.36997 8.61928 7.15536 8.77923 6.99713C8.93919 6.83889 9.15614 6.75 9.38235 6.75H14.5C14.7262 6.75 14.9432 6.83889 15.1031 6.99713C15.2631 7.15536 15.3529 7.36997 15.3529 7.59375V8.4375H16.6835C16.8625 8.43737 17.0368 8.38156 17.1819 8.27799C17.3271 8.17442 17.4356 8.02832 17.4921 7.86037L18.4201 5.10638C18.5898 4.60255 18.9153 4.16425 19.3506 3.85353C19.786 3.54281 20.3091 3.3754 20.8459 3.375H22.1765V0.84375ZM13.6471 8.4375H10.2353V11.8125H13.6471V8.4375ZM23.8824 5.0625H27.2941V1.6875H23.8824V5.0625Z" fill="white"/>
</svg>
